<svg width="836" height="535" viewBox="0 0 836 535" fill="none" xmlns="http://www.w3.org/2000/svg">
<path d="M668.461 531C667.804 530.721 667.041 530.309 666.19 529.783C657.293 525.63 632.32 518.254 626.392 516.51C604.713 510.13 587.209 494.342 566.439 485.603C550.863 479.05 536.528 468.781 519.391 466.897C507.038 465.538 494.214 466.326 481.844 467.151C477.637 467.431 472.084 468.373 468.177 470.048C457.929 474.443 447.123 472.054 436.676 469.642C426.385 467.265 416.115 463.862 406.395 459.729C398.819 456.508 391.001 452.51 382.82 451.037C367.236 448.23 350.65 455.19 335.671 458.357C319.576 461.759 301.579 462.063 285.219 460.085C275.449 458.903 264.758 456.072 255.598 452.46C248.403 449.622 242.419 446.212 234.767 444.581C207.074 438.676 184.523 418.052 156.422 412.81C141.819 410.086 126.661 414.039 112.118 409.76C103.361 407.183 97.6383 401.932 90.8801 396.136C83.8101 390.073 75.8991 384.788 69.1345 378.396C58.6135 368.454 47.2351 359.383 36.9733 349.116C26.9864 339.124 18.8531 323.317 14.5163 309.923C11.0106 299.095 10.1171 287.76 8.36863 276.576C7.00917 267.881 5.02945 259.219 4.20241 250.448C3.70501 245.173 4.1808 239.806 5.01533 234.588C6.25599 226.83 10.8113 220.025 12.0268 212.221C12.3773 209.971 12.23 207.63 12.23 205.359C12.23 200.312 15.5861 195.992 18.4285 192.091C26.9031 180.46 32.4512 168.102 42.8162 157.829C53.9643 146.781 66.8622 135.842 80.1089 127.431C87.3721 122.819 95.1011 118.793 103.023 115.434C113.499 110.993 121.049 105.631 129.799 98.0492C147.356 82.8354 166.069 67.8493 187.11 57.8908C217.11 43.6919 250.439 40.7956 282.78 35.1682C303.102 31.6321 324.071 29.7961 343.597 22.9174C361.643 16.5598 378.271 8.68402 397.809 8.68402L398.741 8.6841C407.268 8.68532 415.683 8.68653 424.178 7.76901C434.826 6.61892 445.127 4.10901 455.882 4.10901C466.61 4.10901 477.369 3.86374 488.094 4.10901C499.512 4.37012 509.779 8.85118 520.153 13.2082C539.469 21.3201 559.839 19.3461 579.7 25.3574C593.869 29.646 602.454 40.6117 615.316 46.7074C622.166 49.954 629.806 52.2419 636.909 54.9424C648.023 59.1679 656.102 64.8784 668.461 65.3633C684.624 65.9975 697.445 67.0179 711.037 77.3092C722.437 85.9401 732.035 96.6037 743.707 105.064C754.096 112.595 763.694 121.294 774.242 128.549C790.17 139.506 803.836 148.268 811.331 166.776C816.776 180.219 828.741 192.947 830.537 207.646L830.575 207.955C831.853 218.42 832.935 227.275 830.74 237.739C827.449 253.43 822.865 269.147 815.904 283.591C812.457 290.745 808.422 297.539 805.133 304.738C802.976 309.458 802.348 314.441 800.967 319.378C799.619 324.194 797.319 329.302 794.616 333.51C791.757 337.959 789.407 343.349 785.877 347.235C777.051 356.948 769.32 366.154 758.593 373.821C756.109 375.596 754.883 377.825 752.09 379.26C749.56 380.559 747.098 382.078 744.824 383.784C741.534 386.253 738.155 388.484 734.714 390.697C728.388 394.766 721.651 398.137 715.305 402.135C711.426 404.578 708.11 407.602 703.823 409.455C698.683 411.676 692.727 415.691 687.463 416.978C681.233 418.502 673.303 420.978 668.562 425.213C658.052 434.602 647.779 445.485 640.11 457.543C636.83 462.699 632.286 471.478 632.286 477.622C632.286 482.602 633.2 487.416 633.2 492.262C633.2 500.535 655.966 523.451 666.19 529.783C667.148 530.229 667.919 530.639 668.461 531Z" fill="white" fill-opacity="0.7"/>
<path d="M668.461 531C659.91 527.364 633.2 501.223 633.2 492.262C633.2 487.416 632.286 482.602 632.286 477.622C632.286 471.478 636.83 462.699 640.11 457.543C647.779 445.485 658.052 434.602 668.562 425.213C673.303 420.978 681.233 418.502 687.463 416.978C692.727 415.691 698.683 411.676 703.823 409.455C708.11 407.602 711.426 404.578 715.305 402.135C721.651 398.137 728.388 394.766 734.714 390.697C738.155 388.484 741.534 386.253 744.824 383.784C747.098 382.078 749.56 380.559 752.09 379.26C754.883 377.825 756.109 375.596 758.593 373.821C769.32 366.154 777.051 356.948 785.877 347.235C789.407 343.349 791.757 337.959 794.616 333.51C797.319 329.302 799.619 324.194 800.967 319.378C802.348 314.441 802.976 309.458 805.133 304.738C808.422 297.539 812.457 290.745 815.904 283.591C822.865 269.147 827.449 253.43 830.74 237.739C832.957 227.172 831.832 218.246 830.537 207.646C828.741 192.947 816.776 180.219 811.331 166.776C803.836 148.268 790.17 139.506 774.242 128.549C763.694 121.294 754.096 112.595 743.707 105.064C732.035 96.6037 722.437 85.9401 711.037 77.3092C697.445 67.0179 684.624 65.9975 668.461 65.3633C656.102 64.8784 648.023 59.1679 636.909 54.9424C629.806 52.2419 622.166 49.954 615.316 46.7074C602.454 40.6117 593.869 29.646 579.7 25.3574C559.839 19.3461 539.469 21.3201 520.153 13.2082C509.779 8.85118 499.511 4.37012 488.094 4.10901C477.369 3.86374 466.61 4.10901 455.882 4.10901C445.127 4.10901 434.826 6.61892 424.178 7.76901C415.374 8.71996 406.654 8.68402 397.809 8.68402C378.271 8.68402 361.643 16.5598 343.597 22.9174C324.071 29.7961 303.102 31.6321 282.78 35.1682C250.44 40.7956 217.11 43.6919 187.11 57.8908C166.069 67.8493 147.356 82.8354 129.799 98.0492C121.049 105.631 113.499 110.993 103.023 115.434C95.1011 118.793 87.3722 122.819 80.1089 127.431C66.8622 135.842 53.9643 146.781 42.8162 157.829C32.4512 168.102 26.9031 180.46 18.4285 192.091C15.5861 195.992 12.23 200.312 12.23 205.359C12.23 207.63 12.3773 209.971 12.0268 212.221C10.8113 220.025 6.25599 226.83 5.01533 234.588C4.1808 239.806 3.70501 245.173 4.20241 250.448C5.02945 259.219 7.00917 267.881 8.36863 276.576C10.1171 287.76 11.0106 299.095 14.5163 309.923C18.8531 323.317 26.9864 339.124 36.9733 349.116C47.2351 359.383 58.6135 368.454 69.1345 378.396C75.8991 384.788 83.8101 390.073 90.8801 396.136C97.6383 401.932 103.361 407.183 112.118 409.76C126.661 414.039 141.819 410.086 156.422 412.81C184.523 418.052 207.074 438.676 234.767 444.581C242.419 446.212 248.403 449.622 255.598 452.46C264.758 456.072 275.449 458.903 285.219 460.085C301.579 462.063 319.576 461.759 335.671 458.357C350.65 455.19 367.236 448.23 382.82 451.037C391.001 452.51 398.819 456.508 406.395 459.729C416.115 463.862 426.385 467.265 436.676 469.642C447.123 472.054 457.929 474.443 468.177 470.048C472.084 468.373 477.637 467.431 481.844 467.151C494.214 466.326 507.038 465.538 519.391 466.897C536.528 468.781 550.863 479.05 566.439 485.603C587.209 494.342 604.713 510.13 626.392 516.51C632.958 518.442 662.888 527.283 668.461 531Z" stroke="white" stroke-width="7" stroke-linecap="round"/>
</svg>
