<svg width="89" height="89" viewBox="0 0 89 89" fill="none" xmlns="http://www.w3.org/2000/svg">
<path d="M44.5 7.4165C24.0189 7.4165 7.41669 24.0187 7.41669 44.4998C7.41669 64.981 24.0189 81.5832 44.5 81.5832C64.9811 81.5832 81.5834 64.981 81.5834 44.4998C81.5834 24.0187 64.9811 7.4165 44.5 7.4165Z" fill="url(#paint0_linear_18_62)"/>
<path d="M49.5192 54.3289H59.1164L60.6238 44.5797H49.5192V39.2508C49.5192 35.2013 50.8431 31.6098 54.6311 31.6098H60.7184V23.1029C59.6485 22.9583 57.3864 22.6431 53.1126 22.6431C44.1866 22.6431 38.9542 27.3564 38.9542 38.0957V44.5816H29.7779V54.3308H38.9523V81.1272C40.7694 81.3979 42.6106 81.5833 44.5 81.5833C46.2077 81.5833 47.8746 81.4276 49.5192 81.2051V54.3289Z" fill="white"/>
<defs>
<linearGradient id="paint0_linear_18_62" x1="18.5287" y1="18.5285" x2="75.307" y2="75.3068" gradientUnits="userSpaceOnUse">
<stop stop-color="#2AA4F4"/>
<stop offset="1" stop-color="#007AD9"/>
</linearGradient>
</defs>
</svg>
