<svg width="89" height="89" viewBox="0 0 89 89" fill="none" xmlns="http://www.w3.org/2000/svg">
<path d="M40.4208 7.78743C23.3625 9.6416 9.64164 23.3624 7.78747 40.0499C5.93331 57.4791 15.9458 73.0541 31.15 78.9874C32.2625 79.3583 33.375 78.6166 33.375 77.1333V71.1999C33.375 71.1999 31.8916 71.5708 30.0375 71.5708C24.8458 71.5708 22.6208 67.1208 22.25 64.5249C21.8791 63.0416 21.1375 61.9291 20.025 60.8166C18.9125 60.4458 18.5416 60.4458 18.5416 60.0749C18.5416 59.3333 19.6541 59.3333 20.025 59.3333C22.25 59.3333 24.1041 61.9291 24.8458 63.0416C26.7 66.0083 28.925 66.7499 30.0375 66.7499C31.5208 66.7499 32.6333 66.3791 33.375 66.0083C33.7458 63.4124 34.8583 60.8166 37.0833 59.3333C28.5541 57.4791 22.25 52.6583 22.25 44.4999C22.25 40.4208 24.1041 36.3416 26.7 33.3749C26.3291 32.6333 25.9583 30.7791 25.9583 28.1833C25.9583 26.6999 25.9583 24.8458 26.7 23.3624C26.7 22.6208 27.4416 22.2499 27.8125 22.2499H28.1833C30.0375 22.6208 33.7458 23.7333 37.0833 27.0708C39.3083 26.3291 41.9041 25.9583 44.5 25.9583C47.0958 25.9583 49.6916 26.3291 51.9166 27.0708C55.2541 23.7333 59.3333 22.6208 61.1875 22.2499H61.5583C62.3 22.2499 62.6708 22.6208 63.0416 23.3624C63.0416 24.8458 63.0416 26.6999 63.0416 28.1833C63.0416 31.1499 62.6708 32.6333 62.3 33.3749C64.8958 36.3416 66.75 40.0499 66.75 44.4999C66.75 52.6583 60.4458 57.4791 51.9166 59.3333C54.1416 61.1874 55.625 64.5249 55.625 67.8624V77.5041C55.625 78.6166 56.7375 79.7291 58.2208 79.3583C71.9416 73.7958 81.5833 60.4458 81.5833 44.8708C81.5833 22.6208 62.6708 5.1916 40.4208 7.78743Z" fill="black"/>
</svg>
