<svg width="1920" height="123" viewBox="0 0 1920 123" fill="none" xmlns="http://www.w3.org/2000/svg">
<path d="M-13.807 96.656C4.69863 92.7827 18.8486 83.2673 35.5468 74.5553C60.1637 61.7116 85.256 48.5348 111.747 39.9805C160.023 24.3912 204.598 38.7438 253.029 49.2004C312.911 62.1295 367.184 88.2832 426.038 103.978C488.619 120.666 559.597 118.043 623.725 114.96C665.856 112.935 707.253 110.089 749.414 112.655C782.358 114.661 814.964 116.364 847.986 116.181C871.747 116.049 895.447 112.804 919.169 114.96C942.012 117.037 966.484 119.692 989.404 118.486C1006.59 117.581 1023.89 110.305 1039.44 103.435C1069.8 90.0144 1096.53 75.842 1129.74 68.9962C1183.88 57.8356 1237.53 49.2845 1292.17 41.6075C1308.24 39.3493 1324.6 39.3555 1340.71 37.5399C1372.96 33.9067 1405.41 36.6231 1437.79 35.6417C1476.69 34.463 1516.11 14.6155 1554.4 7.7107C1601.39 -0.763733 1638.99 8.46082 1684.02 23.5744C1727.7 38.2361 1771.75 54.8271 1810.93 79.572C1825.9 89.0274 1836.56 107.607 1855.54 108.723C1877.83 110.035 1897.81 105.787 1918.18 96.3848C1939.75 86.4291 1959.11 84.4531 1982.58 84.4531" stroke="white" stroke-width="7" stroke-linecap="round"/>
</svg>
