<svg width="1920" height="160" viewBox="0 0 1920 160" fill="none" xmlns="http://www.w3.org/2000/svg">
<path d="M-3.84186 76.5237C13.1669 76.2772 30.5095 76.2593 46.0543 68.6596C72.1831 55.8855 96.0449 41.1408 123.881 31.7798C186.788 10.6254 240.936 27.8332 304.619 41.271C376.935 56.5303 440.743 102.054 514.915 109.471C558.065 113.786 600.945 115.507 644.266 112.861C672.892 111.113 700.635 105.403 728.737 99.9803C762.777 93.411 792.652 92.238 827.037 96.5906C883.229 103.703 938.791 110.856 994.623 120.454C1035.03 127.401 1075.39 134.19 1115.57 142.419C1149.8 149.431 1183.71 156.438 1218.88 155.436C1259.8 154.269 1299.46 143.76 1339.02 134.284C1373.05 126.13 1407.56 119.92 1441.52 111.505C1500.61 96.8627 1558.17 74.7571 1611.82 46.0165C1648.98 26.1102 1683.04 19.0849 1725.03 17.9499C1778.43 16.5066 1832.92 0.329476 1886.11 5.34032C1924.96 9.00035 1962.19 22.8311 2001.36 22.8311C2015.51 22.8311 2029.65 22.8311 2043.8 22.8311" stroke="white" stroke-width="7" stroke-linecap="round"/>
</svg>
