<svg width="89" height="90" viewBox="0 0 89 90" fill="none" xmlns="http://www.w3.org/2000/svg">
<path d="M77.875 69.375C77.875 74.5538 73.7254 78.75 68.6042 78.75H20.3958C15.2765 78.75 11.125 74.5538 11.125 69.375V20.625C11.125 15.4462 15.2765 11.25 20.3958 11.25H68.6042C73.7254 11.25 77.875 15.4462 77.875 20.625V69.375Z" fill="#0078D4"/>
<path opacity="0.05" d="M55.625 69.375V50.4394C55.625 47.2725 54.1064 45.3806 51.5606 45.3806C50.0495 45.3806 48.9388 46.2412 48.2621 47.9381C48.2306 48.0581 48.1861 48.5475 48.2046 50.0269L48.2083 69.375H35.2291V33.75H48.2083V35.7394C50.1033 34.4175 52.4265 33.75 55.1392 33.75C63.5701 33.75 68.6023 39.5494 68.6023 49.2637L68.6041 69.375H55.625ZM20.3958 69.375V33.75H26.8057C23.0918 33.75 20.3958 30.99 20.3958 27.1856C20.3958 23.385 23.1363 20.625 26.9114 20.625C30.6419 20.625 33.299 23.3081 33.375 27.1481C33.375 30.9806 30.6327 33.75 26.8576 33.75H33.375V69.375H20.3958Z" fill="black"/>
<path opacity="0.07" d="M56.5521 68.4375V50.4394C56.5521 46.74 54.6405 44.4431 51.5607 44.4431C49.1596 44.4431 47.9729 46.1531 47.4018 47.5875C47.2498 47.9606 47.2702 49.4419 47.2776 50.0738L47.2813 68.4375H36.1563V34.6875H47.2813V37.7588C48.7553 36.2156 51.1287 34.6875 55.1392 34.6875C62.9879 34.6875 67.6753 40.1363 67.6753 49.2638L67.6771 68.4375H56.5521ZM21.3229 68.4375V34.6875H32.4479V68.4375H21.3229ZM26.8057 32.8125C23.6295 32.8125 21.3229 30.4463 21.3229 27.1856C21.3229 23.9269 23.674 21.5625 26.9114 21.5625C30.108 21.5625 32.383 23.8669 32.4479 27.1669C32.4479 30.4463 30.0969 32.8125 26.8576 32.8125H26.8057Z" fill="black"/>
<path d="M22.25 35.625H31.5208V67.5H22.25V35.625ZM26.8576 31.875H26.8057C24.0393 31.875 22.25 29.79 22.25 27.1856C22.25 24.525 24.0949 22.5 26.9114 22.5C29.7316 22.5 31.4689 24.525 31.5208 27.1856C31.5208 29.7881 29.7316 31.875 26.8576 31.875ZM66.75 67.5H57.4792V50.4394C57.4792 46.3181 55.2078 43.5056 51.5607 43.5056C48.7776 43.5056 47.272 45.4031 46.5414 47.2369C46.2744 47.8931 46.3542 49.7081 46.3542 50.625V67.5H37.0833V35.625H46.3542V40.53C47.691 38.4375 49.7844 35.625 55.1392 35.625C61.7734 35.625 66.7481 39.8438 66.7481 49.2638L66.75 67.5Z" fill="white"/>
</svg>
